<svg width="96" height="85" viewBox="0 0 96 85" fill="none" xmlns="http://www.w3.org/2000/svg">
<rect x="9.01562" y="9.67773" width="77" height="66" fill="#500FB1"/>
<rect x="9.01562" y="9.67773" width="68.5" height="56.8965" fill="#8838FF"/>
<rect x="34.2578" y="27.626" width="5" height="3" fill="#EFEFEF"/>
<rect x="31.2656" y="30.626" width="5" height="3" fill="#EFEFEF"/>
<rect x="28.2578" y="33.626" width="5" height="3" fill="#EFEFEF"/>
<rect x="25.25" y="36.626" width="5" height="3" fill="#EFEFEF"/>
<rect x="28.2578" y="39.626" width="5" height="3" fill="#EFEFEF"/>
<rect x="31.2578" y="42.626" width="5" height="3" fill="#EFEFEF"/>
<rect x="34.2578" y="45.626" width="5" height="3" fill="#EFEFEF"/>
<rect x="52.2812" y="48.626" width="5" height="3" transform="rotate(-180 52.2812 48.626)" fill="#EFEFEF"/>
<rect x="55.2734" y="45.626" width="5" height="3" transform="rotate(-180 55.2734 45.626)" fill="#EFEFEF"/>
<rect x="58.2812" y="42.626" width="5" height="3" transform="rotate(-180 58.2812 42.626)" fill="#EFEFEF"/>
<rect x="61.2891" y="39.626" width="5" height="3" transform="rotate(-180 61.2891 39.626)" fill="#EFEFEF"/>
<rect x="58.2812" y="36.626" width="5" height="3" transform="rotate(-180 58.2812 36.626)" fill="#EFEFEF"/>
<rect x="55.2812" y="33.626" width="5" height="3" transform="rotate(-180 55.2812 33.626)" fill="#EFEFEF"/>
<rect x="52.2812" y="30.626" width="5" height="3" transform="rotate(-180 52.2812 30.626)" fill="#EFEFEF"/>
<rect x="0.265625" y="9.92773" width="8.5" height="65.5" fill="black" stroke="#3C5260" stroke-width="0.5"/>
<rect x="86.2656" y="9.92773" width="8.5" height="65.5" fill="black" stroke="#3C5260" stroke-width="0.5"/>
<rect x="8.98438" y="0.869141" width="76.5" height="8.5" fill="black" stroke="#3C5260" stroke-width="0.5"/>
<rect x="8.98438" y="75.9863" width="76.5" height="8.5" fill="black" stroke="#3C5260" stroke-width="0.5"/>
</svg>
